<?xml version="1.0" encoding="UTF-8" standalone="no"?>
<svg
   xmlns:dc="http://purl.org/dc/elements/1.1/"
   xmlns:cc="http://creativecommons.org/ns#"
   xmlns:rdf="http://www.w3.org/1999/02/22-rdf-syntax-ns#"
   xmlns:svg="http://www.w3.org/2000/svg"
   xmlns="http://www.w3.org/2000/svg"
   xmlns:sodipodi="http://sodipodi.sourceforge.net/DTD/sodipodi-0.dtd"
   xmlns:inkscape="http://www.inkscape.org/namespaces/inkscape"
   width="512"
   height="512"
   viewBox="0 0 135.46666 135.46667"
   version="1.1"
   id="svg8"
   inkscape:version="1.0.1 (3bc2e813f5, 2020-09-07)"
   sodipodi:docname="y.svg">
  <defs
     id="defs2" />
  <sodipodi:namedview
     id="base"
     pagecolor="#ffffff"
     bordercolor="#666666"
     borderopacity="1.0"
     inkscape:pageopacity="0.0"
     inkscape:pageshadow="2"
     inkscape:zoom="0.98994949"
     inkscape:cx="172.03175"
     inkscape:cy="242.04705"
     inkscape:document-units="mm"
     inkscape:current-layer="layer1"
     inkscape:document-rotation="0"
     showgrid="false"
     units="px"
     inkscape:snap-bbox="true"
     inkscape:window-width="1920"
     inkscape:window-height="1017"
     inkscape:window-x="-8"
     inkscape:window-y="-8"
     inkscape:window-maximized="1" />
  <metadata
     id="metadata5">
    <rdf:RDF>
      <cc:Work
         rdf:about="">
        <dc:format>image/svg+xml</dc:format>
        <dc:type
           rdf:resource="http://purl.org/dc/dcmitype/StillImage" />
        <dc:title />
      </cc:Work>
    </rdf:RDF>
  </metadata>
  <g
     inkscape:label="Laag 1"
     inkscape:groupmode="layer"
     id="layer1">
    <g
       aria-label="Y"
       id="text839"
       style="font-style:normal;font-variant:normal;font-weight:bold;font-stretch:normal;font-size:105.448px;line-height:1.25;font-family:'Roboto Mono for Powerline';-inkscape-font-specification:'Roboto Mono for Powerline, Bold';font-variant-ligatures:normal;font-variant-caps:normal;font-variant-numeric:normal;font-variant-east-asian:normal;fill:#000000;fill-opacity:1;stroke:none;stroke-width:0.316343"
       transform="matrix(1.0204198,0,0,1.0204198,-1.3830997,-1.3830981)">
      <path
         d="m 69.104157,31.301047 q -2.003512,-0.738136 -10.333904,4.112472 -8.224943,4.850608 -16.238991,9.595768 -9.173976,5.377848 -11.493832,5.377848 -1.159928,0 -1.159928,-0.949032 0,-3.16344 1.58172,-7.697704 1.58172,-4.639712 3.585232,-8.119496 0.52724,-0.949032 7.065016,-5.166952 8.119496,-5.2724 15.922647,-8.541288 10.755696,-4.534264 18.558848,-4.534264 1.159928,0 2.003512,0 0.843584,0 2.530752,0.421792 1.792616,0.316344 2.425304,2.319856 0.316344,1.05448 0.316344,2.425304 0,1.898064 -0.52724,3.268888 -2.530752,7.065016 -10.966592,18.769744 -6.748672,9.068528 -13.286448,17.92616 -6.537775,8.857631 -5.588743,10.861143 0.421792,0.843584 1.58172,0.843584 3.690679,0 14.340927,-9.806664 4.639712,-4.217919 18.98064,-18.769743 10.439352,-10.5448 12.442859,-11.388384 1.05448,-0.421792 2.8471,2.003512 1.89806,2.425304 1.89806,4.74516 0,1.476272 -8.435835,14.23548 -11.177488,16.977127 -15.184512,23.514903 -7.9086,12.970104 -6.748672,14.76272 3.479784,-1.792616 6.959568,-3.585232 7.9086,-4.639712 12.337416,-4.639712 0.949032,0 1.476272,0.105448 -0.738136,1.58172 -1.370824,3.16344 -9.806664,8.646736 -17.39892,15.606302 -7.592256,7.06502 -14.973616,14.13003 -4.428816,3.79613 -6.537775,3.79613 -0.632688,0 -1.159928,-0.31634 -1.898064,-1.15993 -1.898064,-4.42882 0,-6.43233 8.541287,-21.300494 4.21792,-7.38136 15.079064,-23.409456 2.6362,-4.639712 5.377848,-9.384871 -3.374336,2.741647 -6.643224,5.483295 -10.228456,9.806664 -16.977128,15.184512 -10.966591,8.752184 -15.922647,8.752184 -1.898064,0 -3.057992,-1.265376 -1.792616,-2.10896 -1.792616,-5.166952 0,-5.483296 5.694192,-14.551824 1.58172,-2.530752 10.5448,-14.762719 5.061503,-5.694192 8.857631,-10.333904 7.486808,-9.068528 7.486808,-12.12652 0,-0.843584 -0.738136,-1.159928 z"
         style="font-style:normal;font-variant:normal;font-weight:normal;font-stretch:normal;font-size:105.448px;font-family:Brussels;-inkscape-font-specification:'Brussels, Normal';font-variant-ligatures:normal;font-variant-caps:normal;font-variant-numeric:normal;font-variant-east-asian:normal;fill:#000000;stroke:none;stroke-width:0.316343"
         id="path841" />
    </g>
  </g>
</svg>
